{
  "accessors": [
    {
      "bufferView": 3,
      "componentType": 5126,
      "count": 192,
      "max": [
        0.23889067769050598,
        0.15881147980690002,
        0.9158748984336853
      ],
      "min": [
        -0.23889067769050598,
        -0.0002819135843310505,
        0.15986615419387817
      ],
      "type": "VEC3"
    },
    {
      "bufferView": 3,
      "byteOffset": 2304,
      "componentType": 5126,
      "count": 192,
      "max": [
        0.9998652935028076,
        1.0,
        0.8660256862640381
      ],
      "min": [
        -0.9998652935028076,
        -1.0,
        -0.8660253286361694
      ],
      "type": "VEC3"
    },
    {
      "bufferView": 1,
      "componentType": 5125,
      "count": 288,
      "type": "SCALAR"
    },
    {
      "bufferView": 3,
      "byteOffset": 4608,
      "componentType": 5126,
      "count": 40,
      "max": [
        0.18549293279647827,
        0.2382538914680481,
        0.07336956262588501
      ],
      "min": [
        -0.18549293279647827,
        0.19645164906978607,
        0.054441794753074646
      ],
      "type": "VEC3"
    },
    {
      "bufferView": 3,
      "byteOffset": 5088,
      "componentType": 5126,
      "count": 40,
      "max": [
        0.9964689612388611,
        1.0,
        0.08396261185407639
      ],
      "min": [
        -0.9964689612388611,
        -1.0,
        -1.0
      ],
      "type": "VEC3"
    },
    {
      "bufferView": 2,
      "componentType": 5126,
      "count": 40,
      "max": [
        0.0,
        0.0
      ],
      "min": [
        0.0,
        0.0
      ],
      "type": "VEC2"
    },
    {
      "bufferView": 1,
      "byteOffset": 1152,
      "componentType": 5125,
      "count": 60,
      "type": "SCALAR"
    },
    {
      "bufferView": 3,
      "byteOffset": 5568,
      "componentType": 5126,
      "count": 40,
      "max": [
        0.20181509852409363,
        0.23344174027442932,
        1.0189437866210938
      ],
      "min": [
        -0.20181509852409363,
        0.18075402081012726,
        0.9985353946685791
      ],
      "type": "VEC3"
    },
    {
      "bufferView": 3,
      "byteOffset": 6048,
      "componentType": 5126,
      "count": 40,
      "max": [
        1.0,
        1.0,
        1.0
      ],
      "min": [
        -1.0,
        -1.0,
        0.0
      ],
      "type": "VEC3"
    },
    {
      "bufferView": 2,
      "byteOffset": 320,
      "componentType": 5126,
      "count": 40,
      "max": [
        0.0,
        0.0
      ],
      "min": [
        0.0,
        0.0
      ],
      "type": "VEC2"
    },
    {
      "bufferView": 1,
      "byteOffset": 1392,
      "componentType": 5125,
      "count": 60,
      "type": "SCALAR"
    },
    {
      "bufferView": 3,
      "byteOffset": 6528,
      "componentType": 5126,
      "count": 216,
      "max": [
        0.25893843173980713,
        0.1099051833152771,
        0.8594028353691101
      ],
      "min": [
        -0.25893843173980713,
        0.048624418675899506,
        0.21633833646774292
      ],
      "type": "VEC3"
    },
    {
      "bufferView": 3,
      "byteOffset": 9120,
      "componentType": 5126,
      "count": 216,
      "max": [
        1.0,
        1.0,
        0.8660253286361694
      ],
      "min": [
        -1.0,
        -1.0,
        -0.8660253286361694
      ],
      "type": "VEC3"
    },
    {
      "bufferView": 1,
      "byteOffset": 1632,
      "componentType": 5125,
      "count": 336,
      "type": "SCALAR"
    },
    {
      "bufferView": 3,
      "byteOffset": 11712,
      "componentType": 5126,
      "count": 230,
      "max": [
        0.22617647051811218,
        0.4584737718105316,
        0.9985353946685791
      ],
      "min": [
        -0.22617647051811218,
        0.08169431984424591,
        0.07336956262588501
      ],
      "type": "VEC3"
    },
    {
      "bufferView": 3,
      "byteOffset": 14472,
      "componentType": 5126,
      "count": 230,
      "max": [
        1.0,
        1.0,
        1.0
      ],
      "min": [
        -1.0,
        -1.0,
        -1.0
      ],
      "type": "VEC3"
    },
    {
      "bufferView": 1,
      "byteOffset": 2976,
      "componentType": 5125,
      "count": 468,
      "type": "SCALAR"
    },
    {
      "bufferView": 3,
      "byteOffset": 17232,
      "componentType": 5126,
      "count": 28,
      "max": [
        0.20397835969924927,
        0.43645837903022766,
        0.6944166421890259
      ],
      "min": [
        -0.20397835969924927,
        0.2735554873943329,
        0.13542132079601288
      ],
      "type": "VEC3"
    },
    {
      "bufferView": 3,
      "byteOffset": 17568,
      "componentType": 5126,
      "count": 28,
      "max": [
        1.0,
        0.5574658513069153,
        0.9220757484436035
      ],
      "min": [
        -1.0,
        0.0,
        -0.8301998972892761
      ],
      "type": "VEC3"
    },
    {
      "bufferView": 2,
      "byteOffset": 640,
      "componentType": 5126,
      "count": 28,
      "max": [
        0.0,
        0.0
      ],
      "min": [
        0.0,
        0.0
      ],
      "type": "VEC2"
    },
    {
      "bufferView": 1,
      "byteOffset": 4848,
      "componentType": 5125,
      "count": 48,
      "type": "SCALAR"
    },
    {
      "bufferView": 5,
      "componentType": 5126,
      "count": 5,
      "max": [
        1.0,
        2.036830437646131e-08,
        2.3841852225814364e-07,
        0.0,
        1.536494664833299e-08,
        1.0,
        3.663287900833919e-15,
        0.0,
        0.0,
        1.0,
        1.0,
        0.0,
        0.0,
        0.0,
        0.0,
        1.0
      ],
      "min": [
        1.0,
        -1.536494664833299e-08,
        -6.278329465203569e-07,
        0.0,
        -6.278329465203569e-07,
        0.0,
        -1.0,
        0.0,
        -2.3841852225814364e-07,
        -4.1370354949936405e-13,
        0.0,
        0.0,
        -0.21773134171962738,
        -0.18949788808822632,
        -0.43581533432006836,
        1.0
      ],
      "type": "MAT4"
    },
    {
      "bufferView": 0,
      "componentType": 5123,
      "count": 192,
      "type": "VEC4"
    },
    {
      "bufferView": 4,
      "componentType": 5126,
      "count": 192,
      "max": [
        1.0,
        0.0,
        0.0,
        0.0
      ],
      "min": [
        1.0,
        0.0,
        0.0,
        0.0
      ],
      "type": "VEC4"
    },
    {
      "bufferView": 0,
      "byteOffset": 1536,
      "componentType": 5123,
      "count": 40,
      "type": "VEC4"
    },
    {
      "bufferView": 4,
      "byteOffset": 3072,
      "componentType": 5126,
      "count": 40,
      "max": [
        1.0,
        0.0,
        0.0,
        0.0
      ],
      "min": [
        1.0,
        0.0,
        0.0,
        0.0
      ],
      "type": "VEC4"
    },
    {
      "bufferView": 0,
      "byteOffset": 1856,
      "componentType": 5123,
      "count": 40,
      "type": "VEC4"
    },
    {
      "bufferView": 4,
      "byteOffset": 3712,
      "componentType": 5126,
      "count": 40,
      "max": [
        1.0,
        0.0,
        0.0,
        0.0
      ],
      "min": [
        1.0,
        0.0,
        0.0,
        0.0
      ],
      "type": "VEC4"
    },
    {
      "bufferView": 0,
      "byteOffset": 2176,
      "componentType": 5123,
      "count": 216,
      "type": "VEC4"
    },
    {
      "bufferView": 4,
      "byteOffset": 4352,
      "componentType": 5126,
      "count": 216,
      "max": [
        1.0,
        0.0,
        0.0,
        0.0
      ],
      "min": [
        1.0,
        0.0,
        0.0,
        0.0
      ],
      "type": "VEC4"
    },
    {
      "bufferView": 0,
      "byteOffset": 3904,
      "componentType": 5123,
      "count": 230,
      "type": "VEC4"
    },
    {
      "bufferView": 4,
      "byteOffset": 7808,
      "componentType": 5126,
      "count": 230,
      "max": [
        1.0,
        0.0,
        0.0,
        0.0
      ],
      "min": [
        1.0,
        0.0,
        0.0,
        0.0
      ],
      "type": "VEC4"
    },
    {
      "bufferView": 0,
      "byteOffset": 5744,
      "componentType": 5123,
      "count": 28,
      "type": "VEC4"
    },
    {
      "bufferView": 4,
      "byteOffset": 11488,
      "componentType": 5126,
      "count": 28,
      "max": [
        1.0,
        0.0,
        0.0,
        0.0
      ],
      "min": [
        1.0,
        0.0,
        0.0,
        0.0
      ],
      "type": "VEC4"
    },
    {
      "bufferView": 6,
      "componentType": 5126,
      "count": 30,
      "max": [
        0.9666666388511658
      ],
      "min": [
        0.0
      ],
      "type": "SCALAR"
    },
    {
      "bufferView": 7,
      "componentType": 5126,
      "count": 30,
      "max": [
        0.21773125231266022,
        0.15241694450378418,
        -0.18949802219867706
      ],
      "min": [
        0.21773125231266022,
        0.15241694450378418,
        -0.19416813552379608
      ],
      "type": "VEC3"
    }
  ],
  "animations": [
    {
      "channels": [
        {
          "sampler": 0,
          "target": {
            "node": 16,
            "path": "translation"
          }
        }
      ],
      "name": "Armature_car1Action",
      "samplers": [
        {
          "input": 34,
          "interpolation": "LINEAR",
          "output": 35
        }
      ]
    }
  ],
  "asset": {
    "extras": {
      "author": "tkkjee (https://sketchfab.com/tkkjee)",
      "license": "CC-BY-4.0 (http://creativecommons.org/licenses/by/4.0/)",
      "source": "https://sketchfab.com/3d-models/car-lowpoly-b6906b7e5ae64e6fbacd0cf1d7259d40",
      "title": "Car LowPoly"
    },
    "generator": "Sketchfab-16.15.0",
    "version": "2.0"
  },
  "bufferViews": [
    {
      "buffer": 0,
      "byteLength": 5968,
      "byteStride": 8,
      "name": "shortBufferViews",
      "target": 34962
    },
    {
      "buffer": 0,
      "byteLength": 5040,
      "byteOffset": 5968,
      "name": "floatBufferViews",
      "target": 34963
    },
    {
      "buffer": 0,
      "byteLength": 864,
      "byteOffset": 11008,
      "byteStride": 8,
      "name": "floatBufferViews",
      "target": 34962
    },
    {
      "buffer": 0,
      "byteLength": 17904,
      "byteOffset": 11872,
      "byteStride": 12,
      "name": "floatBufferViews",
      "target": 34962
    },
    {
      "buffer": 0,
      "byteLength": 11936,
      "byteOffset": 29776,
      "byteStride": 16,
      "name": "floatBufferViews",
      "target": 34962
    },
    {
      "buffer": 0,
      "byteLength": 320,
      "byteOffset": 41712,
      "name": "floatBufferViews"
    },
    {
      "buffer": 0,
      "byteLength": 120,
      "byteOffset": 42032,
      "name": "floatBufferViews"
    },
    {
      "buffer": 0,
      "byteLength": 360,
      "byteOffset": 42152,
      "byteStride": 12,
      "name": "floatBufferViews"
    }
  ],
  "buffers": [
    {
      "byteLength": 42512,
      "uri": "scene.bin"
    }
  ],
  "images": [
    {
      "uri": "textures/back_headlights_baseColor.png"
    }
  ],
  "materials": [
    {
      "name": "black_metal",
      "pbrMetallicRoughness": {
        "baseColorFactor": [
          0.0254706,
          0.0254706,
          0.0254706,
          1.0
        ],
        "roughnessFactor": 0.509091
      }
    },
    {
      "alphaMode": "BLEND",
      "emissiveFactor": [
        1.0,
        0.0374122,
        0.0374122
      ],
      "name": "back_headlights",
      "pbrMetallicRoughness": {
        "baseColorFactor": [
          0.242058,
          0.242058,
          0.242058,
          1.0
        ],
        "baseColorTexture": {
          "index": 0
        },
        "metallicFactor": 0.0,
        "roughnessFactor": 0.0
      }
    },
    {
      "alphaMode": "BLEND",
      "emissiveFactor": [
        1.0,
        0.909003,
        0.340759
      ],
      "name": "front_headlights",
      "pbrMetallicRoughness": {
        "baseColorTexture": {
          "index": 0
        },
        "metallicFactor": 0.0,
        "roughnessFactor": 0.0
      }
    },
    {
      "doubleSided": true,
      "name": "metall",
      "pbrMetallicRoughness": {
        "baseColorFactor": [
          0.284258,
          0.370188,
          0.587452,
          1.0
        ],
        "roughnessFactor": 0.5
      }
    },
    {
      "doubleSided": true,
      "name": "car1",
      "pbrMetallicRoughness": {
        "baseColorFactor": [
          0.617207,
          0.351533,
          0.0221739,
          1.0
        ],
        "metallicFactor": 0.145,
        "roughnessFactor": 0.336364
      }
    },
    {
      "alphaMode": "BLEND",
      "name": "glass",
      "pbrMetallicRoughness": {
        "baseColorFactor": [
          0.610487,
          0.610487,
          0.610487,
          1.0
        ],
        "baseColorTexture": {
          "index": 0
        },
        "metallicFactor": 0.0,
        "roughnessFactor": 0.0
      }
    }
  ],
  "meshes": [
    {
      "name": "Object_0",
      "primitives": [
        {
          "attributes": {
            "JOINTS_0": 22,
            "NORMAL": 1,
            "POSITION": 0,
            "WEIGHTS_0": 23
          },
          "indices": 2,
          "material": 0,
          "mode": 4
        }
      ]
    },
    {
      "name": "Object_1",
      "primitives": [
        {
          "attributes": {
            "JOINTS_0": 24,
            "NORMAL": 4,
            "POSITION": 3,
            "TEXCOORD_0": 5,
            "WEIGHTS_0": 25
          },
          "indices": 6,
          "material": 1,
          "mode": 4
        }
      ]
    },
    {
      "name": "Object_2",
      "primitives": [
        {
          "attributes": {
            "JOINTS_0": 26,
            "NORMAL": 8,
            "POSITION": 7,
            "TEXCOORD_0": 9,
            "WEIGHTS_0": 27
          },
          "indices": 10,
          "material": 2,
          "mode": 4
        }
      ]
    },
    {
      "name": "Object_3",
      "primitives": [
        {
          "attributes": {
            "JOINTS_0": 28,
            "NORMAL": 12,
            "POSITION": 11,
            "WEIGHTS_0": 29
          },
          "indices": 13,
          "material": 3,
          "mode": 4
        }
      ]
    },
    {
      "name": "Object_4",
      "primitives": [
        {
          "attributes": {
            "JOINTS_0": 30,
            "NORMAL": 15,
            "POSITION": 14,
            "WEIGHTS_0": 31
          },
          "indices": 16,
          "material": 4,
          "mode": 4
        }
      ]
    },
    {
      "name": "Object_5",
      "primitives": [
        {
          "attributes": {
            "JOINTS_0": 32,
            "NORMAL": 18,
            "POSITION": 17,
            "TEXCOORD_0": 19,
            "WEIGHTS_0": 33
          },
          "indices": 20,
          "material": 5,
          "mode": 4
        }
      ]
    }
  ],
  "nodes": [
    {
      "children": [
        1
      ],
      "matrix": [
        1.0,
        0.0,
        0.0,
        0.0,
        0.0,
        2.220446049250313e-16,
        -1.0,
        0.0,
        0.0,
        1.0,
        2.220446049250313e-16,
        0.0,
        0.0,
        0.0,
        0.0,
        1.0
      ],
      "name": "Sketchfab_model"
    },
    {
      "children": [
        2
      ],
      "name": "root"
    },
    {
      "children": [
        3
      ],
      "matrix": [
        1.0,
        0.0,
        0.0,
        0.0,
        0.0,
        2.220446049250313e-16,
        1.0,
        0.0,
        0.0,
        -1.0,
        2.220446049250313e-16,
        0.0,
        0.0,
        0.0,
        0.0,
        1.0
      ],
      "name": "GLTF_SceneRootNode"
    },
    {
      "children": [
        4
      ],
      "name": "Armature_car1_1"
    },
    {
      "children": [
        5,
        7,
        8,
        9,
        10,
        11,
        12,
        6
      ],
      "name": "GLTF_created_0"
    },
    {
      "children": [
        13
      ],
      "name": "GLTF_created_0_rootJoint"
    },
    {
      "name": "car1_0"
    },
    {
      "mesh": 0,
      "name": "Object_7",
      "skin": 0
    },
    {
      "mesh": 1,
      "name": "Object_8",
      "skin": 0
    },
    {
      "mesh": 2,
      "name": "Object_9",
      "skin": 0
    },
    {
      "mesh": 3,
      "name": "Object_10",
      "skin": 0
    },
    {
      "mesh": 4,
      "name": "Object_11",
      "skin": 0
    },
    {
      "mesh": 5,
      "name": "Object_12",
      "skin": 0
    },
    {
      "children": [
        14,
        15,
        16
      ],
      "name": "Armature_car1_root_car1_2",
      "rotation": [
        0.7071068286895752,
        -2.2197249904820637e-07,
        -2.2197249904820637e-07,
        0.7071068286895752
      ]
    },
    {
      "name": "Armature_car1_front_wheels_car1_3",
      "rotation": [
        -0.7071068286895752,
        2.9906487952757743e-07,
        1.304775167909611e-07,
        0.7071068286895752
      ],
      "translation": [
        0.1968347281217575,
        0.4358152747154236,
        -0.060254134237766266
      ]
    },
    {
      "name": "Armature_car1_back_wheels_car1_4",
      "rotation": [
        -0.7071068286895752,
        2.9906487952757743e-07,
        1.304775167909611e-07,
        0.7071068286895752
      ],
      "translation": [
        0.1968347281217575,
        0.0007724165916442871,
        -0.060254134237766266
      ]
    },
    {
      "name": "Armature_car1_body_car1_5",
      "rotation": [
        -0.7071068286895752,
        3.116984998996486e-07,
        1.4311113716303225e-07,
        0.7071068286895752
      ],
      "translation": [
        0.21773125231266022,
        0.15241694450378418,
        -0.18949802219867706
      ]
    }
  ],
  "samplers": [
    {
      "magFilter": 9729,
      "minFilter": 9729,
      "wrapS": 10497,
      "wrapT": 10497
    }
  ],
  "scene": 0,
  "scenes": [
    {
      "name": "Sketchfab_Scene",
      "nodes": [
        0
      ]
    }
  ],
  "skins": [
    {
      "inverseBindMatrices": 21,
      "joints": [
        5,
        13,
        14,
        15,
        16
      ],
      "skeleton": 5
    }
  ],
  "textures": [
    {
      "sampler": 0,
      "source": 0
    }
  ]
}
